<mxfile host="app.diagrams.net" modified="2021-06-27T00:34:32.326Z" agent="5.0 (X11)" etag="LH4H4E44BrDWpljL57ZJ" version="14.8.1" type="github">
  <diagram id="UsZCnBEWiEGY80Fgw-x5" name="Page-1">
    <mxGraphModel dx="813" dy="431" grid="1" gridSize="10" guides="1" tooltips="1" connect="1" arrows="1" fold="1" page="1" pageScale="1" pageWidth="827" pageHeight="1169" math="0" shadow="0">
      <root>
        <mxCell id="0" />
        <mxCell id="1" parent="0" />
        <mxCell id="oJMDpUVaAbg9bKdj6OZj-4" style="edgeStyle=orthogonalEdgeStyle;rounded=0;orthogonalLoop=1;jettySize=auto;html=1;exitX=1;exitY=0.5;exitDx=0;exitDy=0;entryX=0;entryY=0.5;entryDx=0;entryDy=0;" edge="1" parent="1" source="Ts2vXNqivZjmSGekabNE-14" target="Ts2vXNqivZjmSGekabNE-17">
          <mxGeometry relative="1" as="geometry">
            <mxPoint x="740" y="180" as="sourcePoint" />
            <mxPoint x="140" y="180" as="targetPoint" />
            <Array as="points">
              <mxPoint x="650" y="180" />
              <mxPoint x="650" y="320" />
              <mxPoint x="150" y="320" />
              <mxPoint x="150" y="180" />
            </Array>
          </mxGeometry>
        </mxCell>
        <mxCell id="Ts2vXNqivZjmSGekabNE-10" style="edgeStyle=orthogonalEdgeStyle;rounded=0;orthogonalLoop=1;jettySize=auto;html=1;exitX=1;exitY=0.5;exitDx=0;exitDy=0;entryX=0;entryY=0.5;entryDx=0;entryDy=0;" parent="1" source="Ts2vXNqivZjmSGekabNE-1" target="Ts2vXNqivZjmSGekabNE-5" edge="1">
          <mxGeometry relative="1" as="geometry" />
        </mxCell>
        <mxCell id="Ts2vXNqivZjmSGekabNE-33" style="edgeStyle=orthogonalEdgeStyle;rounded=0;orthogonalLoop=1;jettySize=auto;html=1;exitX=1;exitY=1;exitDx=0;exitDy=0;entryX=0;entryY=0.5;entryDx=0;entryDy=0;" parent="1" source="Ts2vXNqivZjmSGekabNE-1" target="Ts2vXNqivZjmSGekabNE-17" edge="1">
          <mxGeometry relative="1" as="geometry">
            <Array as="points">
              <mxPoint x="142" y="180" />
            </Array>
          </mxGeometry>
        </mxCell>
        <mxCell id="Ts2vXNqivZjmSGekabNE-34" style="edgeStyle=orthogonalEdgeStyle;rounded=0;orthogonalLoop=1;jettySize=auto;html=1;exitX=0.5;exitY=1;exitDx=0;exitDy=0;entryX=0;entryY=0.5;entryDx=0;entryDy=0;" parent="1" source="Ts2vXNqivZjmSGekabNE-1" target="Ts2vXNqivZjmSGekabNE-26" edge="1">
          <mxGeometry relative="1" as="geometry" />
        </mxCell>
        <mxCell id="Ts2vXNqivZjmSGekabNE-1" value="&lt;b&gt;pvAcq&lt;/b&gt;&lt;br&gt;&lt;br&gt;xQueueSend()" style="ellipse;whiteSpace=wrap;html=1;" parent="1" vertex="1">
          <mxGeometry x="40" y="45" width="120" height="80" as="geometry" />
        </mxCell>
        <mxCell id="Ts2vXNqivZjmSGekabNE-3" value="" style="whiteSpace=wrap;html=1;aspect=fixed;" parent="1" vertex="1">
          <mxGeometry x="300" y="60" width="50" height="50" as="geometry" />
        </mxCell>
        <mxCell id="Ts2vXNqivZjmSGekabNE-4" value="" style="whiteSpace=wrap;html=1;aspect=fixed;" parent="1" vertex="1">
          <mxGeometry x="250" y="60" width="50" height="50" as="geometry" />
        </mxCell>
        <mxCell id="Ts2vXNqivZjmSGekabNE-5" value="" style="whiteSpace=wrap;html=1;aspect=fixed;" parent="1" vertex="1">
          <mxGeometry x="200" y="60" width="50" height="50" as="geometry" />
        </mxCell>
        <mxCell id="Ts2vXNqivZjmSGekabNE-36" style="edgeStyle=orthogonalEdgeStyle;rounded=0;orthogonalLoop=1;jettySize=auto;html=1;exitX=1;exitY=0.5;exitDx=0;exitDy=0;entryX=0.5;entryY=0;entryDx=0;entryDy=0;" parent="1" source="Ts2vXNqivZjmSGekabNE-7" target="Ts2vXNqivZjmSGekabNE-14" edge="1">
          <mxGeometry relative="1" as="geometry" />
        </mxCell>
        <mxCell id="Ts2vXNqivZjmSGekabNE-7" value="" style="whiteSpace=wrap;html=1;aspect=fixed;" parent="1" vertex="1">
          <mxGeometry x="400" y="60" width="50" height="50" as="geometry" />
        </mxCell>
        <mxCell id="Ts2vXNqivZjmSGekabNE-8" value="" style="whiteSpace=wrap;html=1;aspect=fixed;" parent="1" vertex="1">
          <mxGeometry x="350" y="60" width="50" height="50" as="geometry" />
        </mxCell>
        <mxCell id="Ts2vXNqivZjmSGekabNE-15" value="" style="whiteSpace=wrap;html=1;aspect=fixed;" parent="1" vertex="1">
          <mxGeometry x="300" y="155" width="50" height="50" as="geometry" />
        </mxCell>
        <mxCell id="Ts2vXNqivZjmSGekabNE-16" value="" style="whiteSpace=wrap;html=1;aspect=fixed;" parent="1" vertex="1">
          <mxGeometry x="250" y="155" width="50" height="50" as="geometry" />
        </mxCell>
        <mxCell id="Ts2vXNqivZjmSGekabNE-17" value="" style="whiteSpace=wrap;html=1;aspect=fixed;" parent="1" vertex="1">
          <mxGeometry x="200" y="155" width="50" height="50" as="geometry" />
        </mxCell>
        <mxCell id="Ts2vXNqivZjmSGekabNE-14" value="&lt;div&gt;&lt;b&gt;pvWaveGenerator&lt;/b&gt;&lt;/div&gt;&lt;br&gt;&lt;div&gt;xQueueReceive()&lt;/div&gt;&lt;div&gt;xQueueSend()&lt;/div&gt;" style="ellipse;whiteSpace=wrap;html=1;" parent="1" vertex="1">
          <mxGeometry x="500" y="130" width="140" height="100" as="geometry" />
        </mxCell>
        <mxCell id="Ts2vXNqivZjmSGekabNE-18" style="edgeStyle=orthogonalEdgeStyle;rounded=0;orthogonalLoop=1;jettySize=auto;html=1;exitX=1;exitY=0.5;exitDx=0;exitDy=0;entryX=0;entryY=0.5;entryDx=0;entryDy=0;" parent="1" source="Ts2vXNqivZjmSGekabNE-19" target="Ts2vXNqivZjmSGekabNE-14" edge="1">
          <mxGeometry relative="1" as="geometry" />
        </mxCell>
        <mxCell id="Ts2vXNqivZjmSGekabNE-19" value="" style="whiteSpace=wrap;html=1;aspect=fixed;" parent="1" vertex="1">
          <mxGeometry x="400" y="155" width="50" height="50" as="geometry" />
        </mxCell>
        <mxCell id="Ts2vXNqivZjmSGekabNE-20" value="" style="whiteSpace=wrap;html=1;aspect=fixed;" parent="1" vertex="1">
          <mxGeometry x="350" y="155" width="50" height="50" as="geometry" />
        </mxCell>
        <mxCell id="Ts2vXNqivZjmSGekabNE-24" value="" style="whiteSpace=wrap;html=1;aspect=fixed;" parent="1" vertex="1">
          <mxGeometry x="300" y="255" width="50" height="50" as="geometry" />
        </mxCell>
        <mxCell id="Ts2vXNqivZjmSGekabNE-25" value="" style="whiteSpace=wrap;html=1;aspect=fixed;" parent="1" vertex="1">
          <mxGeometry x="250" y="255" width="50" height="50" as="geometry" />
        </mxCell>
        <mxCell id="Ts2vXNqivZjmSGekabNE-26" value="" style="whiteSpace=wrap;html=1;aspect=fixed;" parent="1" vertex="1">
          <mxGeometry x="200" y="255" width="50" height="50" as="geometry" />
        </mxCell>
        <mxCell id="Ts2vXNqivZjmSGekabNE-35" style="edgeStyle=orthogonalEdgeStyle;rounded=0;orthogonalLoop=1;jettySize=auto;html=1;exitX=1;exitY=0.5;exitDx=0;exitDy=0;entryX=0.5;entryY=1;entryDx=0;entryDy=0;" parent="1" source="Ts2vXNqivZjmSGekabNE-28" target="Ts2vXNqivZjmSGekabNE-14" edge="1">
          <mxGeometry relative="1" as="geometry" />
        </mxCell>
        <mxCell id="Ts2vXNqivZjmSGekabNE-28" value="" style="whiteSpace=wrap;html=1;aspect=fixed;" parent="1" vertex="1">
          <mxGeometry x="400" y="255" width="50" height="50" as="geometry" />
        </mxCell>
        <mxCell id="Ts2vXNqivZjmSGekabNE-29" value="" style="whiteSpace=wrap;html=1;aspect=fixed;" parent="1" vertex="1">
          <mxGeometry x="350" y="255" width="50" height="50" as="geometry" />
        </mxCell>
        <mxCell id="Ts2vXNqivZjmSGekabNE-30" value="xTypeWave" style="text;html=1;strokeColor=none;fillColor=none;align=center;verticalAlign=middle;whiteSpace=wrap;rounded=0;" parent="1" vertex="1">
          <mxGeometry x="280" y="40" width="90" height="20" as="geometry" />
        </mxCell>
        <mxCell id="Ts2vXNqivZjmSGekabNE-31" value="xFreq" style="text;html=1;strokeColor=none;fillColor=none;align=center;verticalAlign=middle;whiteSpace=wrap;rounded=0;" parent="1" vertex="1">
          <mxGeometry x="280" y="135" width="90" height="20" as="geometry" />
        </mxCell>
        <mxCell id="Ts2vXNqivZjmSGekabNE-32" value="xAmp" style="text;html=1;strokeColor=none;fillColor=none;align=center;verticalAlign=middle;whiteSpace=wrap;rounded=0;" parent="1" vertex="1">
          <mxGeometry x="280" y="235" width="90" height="20" as="geometry" />
        </mxCell>
      </root>
    </mxGraphModel>
  </diagram>
</mxfile>
